<svg width="48" height="49" viewBox="0 0 48 49" fill="none" xmlns="http://www.w3.org/2000/svg">
<path fill-rule="evenodd" clip-rule="evenodd" d="M24 0.5C10.7505 0.5 0 11.2505 0 24.5C0 37.7495 10.7505 48.5 24 48.5C37.2234 48.5 48 37.7495 48 24.5C48 11.2505 37.2234 0.5 24 0.5ZM39.8525 11.5629C42.7158 15.051 44.4339 19.5021 44.486 24.3177C43.8092 24.1877 37.0411 22.808 30.2212 23.667C30.0651 23.3286 29.9349 22.9641 29.7788 22.5998C29.3622 21.6107 28.8937 20.5955 28.4251 19.6324C35.9739 16.5608 39.41 12.1356 39.8525 11.5629ZM24 4.04013C29.2061 4.04013 33.9696 5.99242 37.5879 9.19415C37.2234 9.71476 34.1258 13.8536 26.8372 16.5868C23.4794 10.4176 19.7571 5.36768 19.1844 4.58676C20.7201 4.22234 22.3341 4.04013 24 4.04013ZM15.2799 5.96637C15.8265 6.69522 19.4708 11.7712 22.8807 17.8102C13.3015 20.3612 4.84165 20.3092 3.93058 20.3092C5.25813 13.9577 9.55314 8.67353 15.2799 5.96637ZM3.48807 24.5261C3.48807 24.3178 3.48807 24.1096 3.48807 23.9014C4.3731 23.9273 14.3167 24.0575 24.5466 20.986C25.1454 22.1312 25.692 23.3026 26.2127 24.4739C25.9522 24.552 25.6659 24.6302 25.4056 24.7082C14.8373 28.1181 9.21476 37.437 8.7462 38.2179C5.4924 34.5998 3.48807 29.7842 3.48807 24.5261ZM24 45.0119C19.2624 45.0119 14.8894 43.398 11.4273 40.6908C11.7918 39.9361 15.9565 31.9187 27.514 27.884C27.5661 27.8579 27.5922 27.8579 27.6443 27.832C30.5336 35.3026 31.705 41.5759 32.0173 43.372C29.5445 44.4392 26.8372 45.0119 24 45.0119ZM35.4273 41.4978C35.2191 40.2483 34.1258 34.2614 31.4447 26.8948C37.8743 25.8796 43.4967 27.5456 44.1996 27.7799C43.3146 33.4805 40.0347 38.4002 35.4273 41.4978Z" fill="white"/>
</svg>
